<mxfile host="app.diagrams.net" modified="2024-05-07T15:39:44.970Z" agent="Mozilla/5.0 (Windows NT 10.0; Win64; x64) AppleWebKit/537.36 (KHTML, like Gecko) Chrome/124.0.0.0 Safari/537.36 Edg/124.0.0.0" version="24.2.5" etag="yJtfodwD0DaVVZwhV0e5" type="github">
  <diagram name="第 1 页" id="vSMtF_dreAP6zfrNmIUE">
    <mxGraphModel>
      <root>
        <mxCell id="0" />
        <mxCell id="1" parent="0" />
      </root>
    </mxGraphModel>
  </diagram>
</mxfile>
